<?xml version="1.0" encoding="UTF-8"?>
<svg id="Layer_2" data-name="Layer 2" xmlns="http://www.w3.org/2000/svg" viewBox="0 0 1698.27 120.27">
  <defs>
    <style>
      .cls-1 {
        fill: #fff;
      }
    </style>
  </defs>
  <g id="Layer_1-2" data-name="Layer 1">
    <g>
      <polygon class="cls-1" points="50.59 61.54 84.18 36.26 84.31 35.55 80.89 31.33 0 91.98 0 120.27 5.97 120.27 5.97 95.1 45.31 65.72 90.84 120.27 98.37 120.27 50.36 62.35 50.59 61.54"/>
      <polygon class="cls-1" points="82.59 0 5.97 57.43 5.97 0 0 0 0 69.37 92.12 0 82.59 0"/>
      <polygon class="cls-1" points="195.69 26.07 189.64 26.07 146.98 69.97 146.98 26.07 142 26.07 142 94.4 146.98 94.4 146.98 76.42 162.26 60.77 191.69 94.4 197.74 94.4 165.66 57.16 195.69 26.07"/>
      <path class="cls-1" d="M262.55,35.44c-3.19-3.12-6.95-5.55-11.27-7.27-4.33-1.72-9.03-2.59-14.11-2.59s-9.78.86-14.11,2.59c-4.33,1.73-8.1,4.17-11.32,7.32-3.22,3.16-5.71,6.83-7.47,11.03-1.76,4.2-2.64,8.77-2.64,13.71s.88,9.52,2.64,13.72c1.76,4.2,4.25,7.87,7.47,11.03,3.22,3.16,6.99,5.6,11.32,7.32,4.33,1.73,9.03,2.59,14.11,2.59s9.78-.86,14.11-2.59c4.33-1.72,8.08-4.15,11.27-7.27,3.19-3.12,5.68-6.78,7.47-10.98,1.79-4.2,2.68-8.8,2.68-13.81s-.9-9.61-2.68-13.81c-1.79-4.2-4.28-7.86-7.47-10.98ZM265.34,72.14c-1.53,3.65-3.66,6.83-6.39,9.57s-5.95,4.85-9.66,6.34c-3.71,1.5-7.75,2.25-12.1,2.25s-8.4-.75-12.1-2.25c-3.71-1.5-6.95-3.61-9.71-6.34-2.77-2.73-4.91-5.92-6.44-9.57-1.53-3.64-2.29-7.61-2.29-11.91s.76-8.35,2.29-11.96c1.53-3.61,3.68-6.78,6.44-9.52,2.77-2.73,6-4.85,9.71-6.35,3.71-1.5,7.74-2.25,12.1-2.25s8.4.75,12.1,2.25c3.71,1.5,6.93,3.61,9.66,6.35s4.86,5.91,6.39,9.52c1.53,3.61,2.29,7.6,2.29,11.96s-.77,8.27-2.29,11.91Z"/>
      <path class="cls-1" d="M329.23,69.26c4.1-1.85,7.26-4.49,9.47-7.91,2.21-3.42,3.32-7.5,3.32-12.25s-1.11-9.03-3.32-12.45c-2.21-3.42-5.37-6.04-9.47-7.86-4.1-1.82-9.01-2.73-14.74-2.73h-24.5v68.33h4.98v-22.35h19.52c2.33,0,4.52-.16,6.59-.47l16.35,22.82h5.66l-17.13-23.91c1.14-.35,2.23-.76,3.27-1.23ZM294.96,67.65V30.56h19.52c7.35,0,12.93,1.61,16.74,4.83s5.71,7.79,5.71,13.71-1.9,10.41-5.71,13.67c-3.81,3.25-9.39,4.88-16.74,4.88h-19.52Z"/>
      <polygon class="cls-1" points="365.24 61.89 401.65 61.89 401.65 57.5 365.24 57.5 365.24 30.56 405.95 30.56 405.95 26.07 360.27 26.07 360.27 94.4 407.41 94.4 407.41 89.91 365.24 89.91 365.24 61.89"/>
      <path class="cls-1" d="M445.58,26.07l-31.43,68.33h5.37l8.72-19.23h39.63l8.75,19.23h5.37l-31.43-68.33h-4.98ZM430.14,70.97l17.88-39.42,17.94,39.42h-35.82Z"/>
      <polygon class="cls-1" points="545.05 85.38 498.58 26.07 494.39 26.07 494.39 94.4 499.37 94.4 499.37 35.08 545.93 94.4 550.03 94.4 550.03 26.07 545.05 26.07 545.05 85.38"/>
      <path class="cls-1" d="M618.94,26.07l-31.43,68.33h5.37l8.72-19.23h39.63l8.75,19.23h5.37l-31.43-68.33h-4.98ZM603.51,70.97l17.88-39.42,17.94,39.42h-35.82Z"/>
      <path class="cls-1" d="M715.48,65.21c0,8.53-1.95,14.84-5.86,18.94-3.9,4.1-9.4,6.15-16.5,6.15s-12.69-2.05-16.59-6.15c-3.9-4.1-5.86-10.41-5.86-18.94V26.07h-4.98v39.34c0,9.76,2.44,17.12,7.32,22.06,4.88,4.95,11.55,7.42,20.01,7.42s15.23-2.47,20.11-7.42c4.88-4.94,7.32-12.3,7.32-22.06V26.07h-4.98v39.14Z"/>
      <polygon class="cls-1" points="730.81 30.56 755.41 30.56 755.41 94.4 760.39 94.4 760.39 30.56 784.99 30.56 784.99 26.07 730.81 26.07 730.81 30.56"/>
      <path class="cls-1" d="M850.68,35.44c-3.19-3.12-6.95-5.55-11.27-7.27-4.33-1.72-9.03-2.59-14.11-2.59s-9.78.86-14.11,2.59c-4.33,1.73-8.1,4.17-11.32,7.32-3.22,3.16-5.71,6.83-7.47,11.03-1.76,4.2-2.64,8.77-2.64,13.71s.88,9.52,2.64,13.72c1.76,4.2,4.25,7.87,7.47,11.03,3.22,3.16,7,5.6,11.32,7.32,4.33,1.73,9.03,2.59,14.11,2.59s9.78-.86,14.11-2.59c4.33-1.72,8.09-4.15,11.27-7.27s5.68-6.78,7.47-10.98c1.79-4.2,2.68-8.8,2.68-13.81s-.9-9.61-2.68-13.81c-1.79-4.2-4.28-7.86-7.47-10.98ZM853.46,72.14c-1.53,3.65-3.66,6.83-6.39,9.57s-5.95,4.85-9.66,6.34c-3.71,1.5-7.75,2.25-12.1,2.25s-8.39-.75-12.1-2.25c-3.71-1.5-6.95-3.61-9.71-6.34-2.77-2.73-4.91-5.92-6.44-9.57-1.53-3.64-2.29-7.61-2.29-11.91s.76-8.35,2.29-11.96c1.53-3.61,3.68-6.78,6.44-9.52,2.76-2.73,6-4.85,9.71-6.35,3.71-1.5,7.74-2.25,12.1-2.25s8.4.75,12.1,2.25c3.71,1.5,6.93,3.61,9.66,6.35s4.86,5.91,6.39,9.52c1.53,3.61,2.29,7.6,2.29,11.96s-.77,8.27-2.29,11.91Z"/>
      <polygon class="cls-1" points="943.41 26.07 912.91 78.89 882.31 26.07 878.11 26.07 878.11 94.4 882.99 94.4 882.99 36.1 911.59 85.32 914.03 85.32 942.64 35.94 942.73 94.4 947.61 94.4 947.51 26.07 943.41 26.07"/>
      <path class="cls-1" d="M1025.8,35.44c-3.19-3.12-6.95-5.55-11.27-7.27-4.33-1.72-9.03-2.59-14.11-2.59s-9.78.86-14.11,2.59c-4.33,1.73-8.1,4.17-11.32,7.32-3.22,3.16-5.71,6.83-7.47,11.03-1.76,4.2-2.64,8.77-2.64,13.71s.88,9.52,2.64,13.72c1.76,4.2,4.25,7.87,7.47,11.03,3.22,3.16,7,5.6,11.32,7.32,4.33,1.73,9.03,2.59,14.11,2.59s9.78-.86,14.11-2.59c4.33-1.72,8.09-4.15,11.27-7.27s5.68-6.78,7.47-10.98c1.79-4.2,2.68-8.8,2.68-13.81s-.9-9.61-2.68-13.81c-1.79-4.2-4.28-7.86-7.47-10.98ZM1028.58,72.14c-1.53,3.65-3.66,6.83-6.39,9.57s-5.95,4.85-9.66,6.34c-3.71,1.5-7.75,2.25-12.1,2.25s-8.39-.75-12.1-2.25c-3.71-1.5-6.95-3.61-9.71-6.34-2.77-2.73-4.91-5.92-6.44-9.57-1.53-3.64-2.29-7.61-2.29-11.91s.76-8.35,2.29-11.96c1.53-3.61,3.68-6.78,6.44-9.52,2.76-2.73,6-4.85,9.71-6.35,3.71-1.5,7.74-2.25,12.1-2.25s8.4.75,12.1,2.25c3.71,1.5,6.93,3.61,9.66,6.35s4.86,5.91,6.39,9.52c1.53,3.61,2.29,7.6,2.29,11.96s-.77,8.27-2.29,11.91Z"/>
      <polygon class="cls-1" points="1040.74 30.56 1065.34 30.56 1065.34 94.4 1070.31 94.4 1070.31 30.56 1094.91 30.56 1094.91 26.07 1040.74 26.07 1040.74 30.56"/>
      <rect class="cls-1" x="1107.21" y="26.07" width="4.98" height="68.33"/>
      <polygon class="cls-1" points="1156.85 87.98 1129.27 26.07 1123.81 26.07 1154.26 94.4 1159.24 94.4 1189.7 26.07 1184.52 26.07 1156.85 87.98"/>
      <polygon class="cls-1" points="1205.71 61.89 1242.12 61.89 1242.12 57.5 1205.71 57.5 1205.71 30.56 1246.41 30.56 1246.41 26.07 1200.73 26.07 1200.73 94.4 1247.88 94.4 1247.88 89.91 1205.71 89.91 1205.71 61.89"/>
      <polygon class="cls-1" points="1344.81 26.07 1338.75 26.07 1296.1 69.97 1296.1 26.07 1291.12 26.07 1291.12 94.4 1296.1 94.4 1296.1 76.42 1311.38 60.77 1340.8 94.4 1346.86 94.4 1314.77 57.16 1344.81 26.07"/>
      <path class="cls-1" d="M1411.67,35.44c-3.19-3.12-6.95-5.55-11.27-7.27-4.33-1.72-9.03-2.59-14.11-2.59s-9.78.86-14.11,2.59c-4.33,1.73-8.1,4.17-11.32,7.32-3.22,3.16-5.71,6.83-7.47,11.03-1.76,4.2-2.64,8.77-2.64,13.71s.88,9.52,2.64,13.72c1.76,4.2,4.25,7.87,7.47,11.03,3.22,3.16,7,5.6,11.32,7.32,4.33,1.73,9.03,2.59,14.11,2.59s9.78-.86,14.11-2.59c4.33-1.72,8.09-4.15,11.27-7.27s5.68-6.78,7.47-10.98c1.79-4.2,2.68-8.8,2.68-13.81s-.9-9.61-2.68-13.81c-1.79-4.2-4.28-7.86-7.47-10.98ZM1414.45,72.14c-1.53,3.65-3.66,6.83-6.39,9.57s-5.95,4.85-9.66,6.34c-3.71,1.5-7.75,2.25-12.1,2.25s-8.39-.75-12.1-2.25c-3.71-1.5-6.95-3.61-9.71-6.34-2.77-2.73-4.91-5.92-6.44-9.57-1.53-3.64-2.29-7.61-2.29-11.91s.76-8.35,2.29-11.96c1.53-3.61,3.68-6.78,6.44-9.52,2.76-2.73,6-4.85,9.71-6.35,3.71-1.5,7.74-2.25,12.1-2.25s8.4.75,12.1,2.25c3.71,1.5,6.93,3.61,9.66,6.35s4.86,5.91,6.39,9.52c1.53,3.61,2.29,7.6,2.29,11.96s-.77,8.27-2.29,11.91Z"/>
      <path class="cls-1" d="M1473.17,62.97c-2.54-1.3-5.3-2.36-8.3-3.17-2.99-.81-6.02-1.58-9.08-2.29-3.06-.72-5.86-1.59-8.4-2.64-2.54-1.04-4.57-2.44-6.1-4.2-1.53-1.76-2.29-4.1-2.29-7.03,0-2.54.68-4.83,2.05-6.88,1.37-2.05,3.48-3.69,6.34-4.93,2.86-1.24,6.47-1.85,10.84-1.85,3.06,0,6.23.47,9.52,1.42,3.29.94,6.36,2.39,9.22,4.34l1.85-4c-2.6-1.89-5.74-3.38-9.42-4.49-3.68-1.11-7.4-1.66-11.18-1.66-5.6,0-10.19.85-13.76,2.54-3.58,1.69-6.22,3.9-7.91,6.64-1.69,2.73-2.54,5.73-2.54,8.98,0,3.58.76,6.49,2.29,8.74,1.53,2.25,3.56,4.02,6.1,5.32,2.54,1.3,5.34,2.36,8.4,3.17,3.06.81,6.08,1.58,9.08,2.29,2.99.72,5.76,1.6,8.3,2.64,2.54,1.04,4.59,2.44,6.15,4.2,1.56,1.76,2.34,4.1,2.34,7.03,0,2.47-.7,4.72-2.1,6.74-1.4,2.02-3.55,3.63-6.44,4.83-2.9,1.21-6.62,1.81-11.18,1.81s-8.87-.83-12.93-2.49c-4.07-1.66-7.27-3.69-9.62-6.1l-2.25,3.71c2.47,2.73,5.97,4.96,10.49,6.69,4.52,1.73,9.32,2.59,14.4,2.59,5.66,0,10.3-.83,13.91-2.49,3.61-1.66,6.3-3.87,8.05-6.64,1.76-2.77,2.64-5.74,2.64-8.93,0-3.51-.78-6.38-2.34-8.59-1.56-2.21-3.61-3.97-6.15-5.27Z"/>
      <path class="cls-1" d="M1552.92,35.44c-3.19-3.12-6.95-5.55-11.27-7.27-4.33-1.72-9.03-2.59-14.11-2.59s-9.78.86-14.11,2.59c-4.33,1.73-8.1,4.17-11.32,7.32-3.22,3.16-5.71,6.83-7.47,11.03-1.76,4.2-2.64,8.77-2.64,13.71s.88,9.52,2.64,13.72c1.76,4.2,4.25,7.87,7.47,11.03,3.22,3.16,7,5.6,11.32,7.32,4.33,1.73,9.03,2.59,14.11,2.59s9.78-.86,14.11-2.59c4.33-1.72,8.09-4.15,11.27-7.27s5.68-6.78,7.47-10.98c1.79-4.2,2.68-8.8,2.68-13.81s-.9-9.61-2.68-13.81c-1.79-4.2-4.28-7.86-7.47-10.98ZM1555.7,72.14c-1.53,3.65-3.66,6.83-6.39,9.57s-5.95,4.85-9.66,6.34c-3.71,1.5-7.75,2.25-12.1,2.25s-8.39-.75-12.1-2.25c-3.71-1.5-6.95-3.61-9.71-6.34-2.77-2.73-4.91-5.92-6.44-9.57-1.53-3.64-2.29-7.61-2.29-11.91s.76-8.35,2.29-11.96c1.53-3.61,3.68-6.78,6.44-9.52,2.76-2.73,6-4.85,9.71-6.35,3.71-1.5,7.74-2.25,12.1-2.25s8.4.75,12.1,2.25c3.71,1.5,6.93,3.61,9.66,6.35s4.86,5.91,6.39,9.52c1.53,3.61,2.29,7.6,2.29,11.96s-.77,8.27-2.29,11.91Z"/>
      <polygon class="cls-1" points="1627.69 26.07 1600.02 87.98 1572.44 26.07 1566.98 26.07 1597.43 94.4 1602.41 94.4 1632.87 26.07 1627.69 26.07"/>
      <path class="cls-1" d="M1692.9,94.4h5.37l-31.43-68.33h-4.98l-31.43,68.33h5.37l8.72-19.23h39.63l8.75,19.23ZM1646.42,70.97l17.88-39.42,17.94,39.42h-35.82Z"/>
    </g>
  </g>
</svg>